Coordinates
version=1
nRows=5
nColumns=40
inDegrees=yes

Units are S.I. units (second, meters, Newtons, ...)
Angles are in degrees.

endheader
time	pelvis_tilt	pelvis_list	pelvis_rotation	pelvis_tx	pelvis_ty	pelvis_tz	hip_flexion_r	hip_adduction_r	hip_rotation_r	knee_angle_r	knee_angle_r_beta	ankle_angle_r	subtalar_angle_r	mtp_angle_r	hip_flexion_l	hip_adduction_l	hip_rotation_l	knee_angle_l	knee_angle_l_beta	ankle_angle_l	subtalar_angle_l	mtp_angle_l	lumbar_extension	lumbar_bending	lumbar_rotation	arm_flex_r	arm_add_r	arm_rot_r	elbow_flex_r	pro_sup_r	wrist_flex_r	wrist_dev_r	arm_flex_l	arm_add_l	arm_rot_l	elbow_flex_l	pro_sup_l	wrist_flex_l	wrist_dev_l
      1.44000000	     -2.32628949	     -1.77046068	     -0.30324209	      0.40066912	      0.89518686	     -1.01793627	      8.42187597	      4.63439258	    -15.18407028	    -23.04815058	     -0.40226611	     11.26635104	     -2.55321039	      4.08092906	     27.65962478	      6.25953688	      4.36723092	    -69.24409600	     -1.20853746	      1.27287134	     18.73109973	     17.13901079	     -3.41691629	      2.05694024	     -0.85767730	      3.38536397	     -9.93810503	     -5.22147606	     30.53242906	     89.95437384	      0.00000000	      0.00000000	     -2.86684681	      7.34337680	     19.56877704	     34.39762493	     89.95437384	      0.00000000	      0.00000000
      1.45000000	     -2.18564962	     -1.59018011	     -0.76085866	      0.41030390	      0.89552422	     -1.01682067	      7.46447905	      4.54084798	    -14.70244502	    -22.87132678	     -0.39917996	     11.52040020	     -1.94742204	      3.76013340	     28.36164544	      6.16370170	      4.77525086	    -67.80389356	     -1.18340119	      2.64359608	     18.77021464	     17.45749682	     -3.67624359	      1.85234481	     -0.28025008	      3.62624667	    -10.18025125	     -5.28096850	     31.95039909	     89.95437384	      0.00000000	      0.00000000	     -2.92545786	      7.10453362	     19.83547714	     32.96484150	     89.95437384	      0.00000000	      0.00000000
      1.46000000	     -2.32723981	     -1.59870968	     -1.02664535	      0.41960749	      0.89517354	     -1.01570224	      6.98200545	      4.58530242	    -14.78175997	    -22.94521618	     -0.40046957	     11.62227379	     -1.85536932	      3.62071061	     29.47561910	      6.30073080	      5.00293855	    -66.18624705	     -1.15516793	      3.01456953	     18.77516387	     17.35072123	     -3.63419550	      1.81178233	     -0.15664716	      4.24548113	    -10.27032195	     -5.30097203	     32.77602040	     89.95437384	      0.00000000	      0.00000000	     -3.56706330	      7.01341618	     19.81272894	     32.44635572	     89.95437384	      0.00000000	      0.00000000
      1.47000000	     -2.02354410	     -1.31442367	     -1.55892841	      0.42946935	      0.89561735	     -1.01476356	      5.81285297	      4.31836484	    -14.36833079	    -22.66856350	     -0.39564107	     12.09592764	     -1.19744292	      3.19613051	     29.70743220	      6.06528153	      5.46832547	    -64.09761182	     -1.11871437	      4.31169846	     18.82791130	     17.92320724	     -4.06788162	      1.48517082	      0.52517341	      4.46671757	    -10.53710442	     -5.29385404	     34.09778499	     89.95437384	      0.00000000	      0.00000000	     -3.55385930	      6.76531469	     20.23038318	     31.04978717	     89.95437384	      0.00000000	      0.00000000
      1.48000000	     -2.20029876	     -1.40926249	     -1.70845325	      0.43885345	      0.89498506	     -1.01384157	      5.39556931	      4.44634060	    -14.43324184	    -22.81107706	     -0.39812840	     12.15931222	     -1.14211459	      3.06679360	     30.74423213	      6.28995432	      5.66035734	    -62.11028681	     -1.08402900	      4.66693496	     18.80242686	     17.81216976	     -3.98906085	      1.54454162	      0.45026655	      5.08137818	    -10.57973492	     -5.30578949	     34.91788813	     89.95437384	      0.00000000	      0.00000000	     -4.21894049	      6.69344744	     20.18135763	     30.59529072	     89.95437384	      0.00000000	      0.00000000
